# xmcd
#
# Track frame offsets: 
#        150
#        18412
#        31704
#        50072
#        67204
#        79691
#        90664
#        106614
#        122619
#        132473
#        143649
#        157395
#        166767
#        180938
#        199435
#        209165
#        228583
#        242516
#        260508
#        285253
#
# Disc length: 3909 seconds
#
# Revision: 0
# Processed by: cddbd v1.5.2PL0 Copyright (c) Steve Scherf et al.
# Submitted via: ExactAudioCopy v0.99pb4
#
DISCID=1a0f4314
DTITLE=Various Artist - De Topcollectie Kerstklassiekers - CD 2
DYEAR=2012
DGENRE=Chanson
TTITLE0=Coldplay - Christmas Lights
TTITLE1=Robbie Williams - Walk This Sleigh
TTITLE2=Kate Winslet - What If
TTITLE3=Norah Jones - Peace
TTITLE4=Diana Krall - Jingle Bells
TTITLE5=KT Tunstall - Christmas (Baby Please Come Home)
TTITLE6=Mud - Lonely This Christmas
TTITLE7=Mel and Kim - Rockin' Around The Christmas Tree
TTITLE8=Dean Martin - Winter Wonderland
TTITLE9=Ray Conniff - Sleigh Ride
TTITLE10=Bing Crosby - White Christmas
TTITLE11=Simon and Garfunkel - Go Tell It On The Mountain
TTITLE12=Marva - Rode Rozen In De Sneeuw
TTITLE13=Urbanus - Een Bakske Vol Met Stro
TTITLE14=Anne Murray - Snowbird
TTITLE15=Dolly Parton - Joy To The World
TTITLE16=Mick Hucknall - Happy This Christmas
TTITLE17=Chris Rea - Driving Home For Christmas
TTITLE18=Frankie Goes To Hollywood - The Power Of Love
TTITLE19=Kate Bush - Home For Christmas
EXTD=
EXTT0=
EXTT1=
EXTT2=
EXTT3=
EXTT4=
EXTT5=
EXTT6=
EXTT7=
EXTT8=
EXTT9=
EXTT10=
EXTT11=
EXTT12=
EXTT13=
EXTT14=
EXTT15=
EXTT16=
EXTT17=
EXTT18=
EXTT19=
PLAYORDER=
